<mxfile host="app.diagrams.net" agent="Mozilla/5.0 (X11; Linux x86_64) AppleWebKit/537.36 (KHTML, like Gecko) Chrome/131.0.0.0 Safari/537.36" version="24.8.6">
  <diagram name="Page-1" id="2YBvvXClWsGukQMizWep">
    <mxGraphModel grid="1" page="1" gridSize="10" guides="1" tooltips="1" connect="1" arrows="1" fold="1" pageScale="1" pageWidth="850" pageHeight="1100" math="0" shadow="0">
      <root>
        <mxCell id="0" />
        <mxCell id="1" parent="0" />
        <mxCell id="ldVx8aX9t8VwM5ESo-0d-1" value="student_list_view:&lt;br&gt;Student_list_view" style="shape=umlLifeline;perimeter=lifelinePerimeter;whiteSpace=wrap;html=1;container=1;dropTarget=0;collapsible=0;recursiveResize=0;outlineConnect=0;portConstraint=eastwest;newEdgeStyle={&quot;curved&quot;:0,&quot;rounded&quot;:0};" vertex="1" parent="1">
          <mxGeometry x="10" y="480" width="190" height="770" as="geometry" />
        </mxCell>
        <mxCell id="ldVx8aX9t8VwM5ESo-0d-10" value="" style="html=1;points=[[0,0,0,0,5],[0,1,0,0,-5],[1,0,0,0,5],[1,1,0,0,-5]];perimeter=orthogonalPerimeter;outlineConnect=0;targetShapes=umlLifeline;portConstraint=eastwest;newEdgeStyle={&quot;curved&quot;:0,&quot;rounded&quot;:0};" vertex="1" parent="ldVx8aX9t8VwM5ESo-0d-1">
          <mxGeometry x="90" y="80" width="10" height="560" as="geometry" />
        </mxCell>
        <mxCell id="ldVx8aX9t8VwM5ESo-0d-2" value="student_list_controller:&lt;br&gt;Student_list_controller" style="shape=umlLifeline;perimeter=lifelinePerimeter;whiteSpace=wrap;html=1;container=1;dropTarget=0;collapsible=0;recursiveResize=0;outlineConnect=0;portConstraint=eastwest;newEdgeStyle={&quot;curved&quot;:0,&quot;rounded&quot;:0};" vertex="1" parent="1">
          <mxGeometry x="880" y="480" width="190" height="550" as="geometry" />
        </mxCell>
        <mxCell id="ldVx8aX9t8VwM5ESo-0d-13" value="" style="html=1;points=[[0,0,0,0,5],[0,1,0,0,-5],[1,0,0,0,5],[1,1,0,0,-5]];perimeter=orthogonalPerimeter;outlineConnect=0;targetShapes=umlLifeline;portConstraint=eastwest;newEdgeStyle={&quot;curved&quot;:0,&quot;rounded&quot;:0};" vertex="1" parent="ldVx8aX9t8VwM5ESo-0d-2">
          <mxGeometry x="90" y="380" width="10" height="150" as="geometry" />
        </mxCell>
        <mxCell id="ldVx8aX9t8VwM5ESo-0d-3" value="students_list:&lt;br&gt;Students_list_DB_adapter" style="shape=umlLifeline;perimeter=lifelinePerimeter;whiteSpace=wrap;html=1;container=1;dropTarget=0;collapsible=0;recursiveResize=0;outlineConnect=0;portConstraint=eastwest;newEdgeStyle={&quot;curved&quot;:0,&quot;rounded&quot;:0};" vertex="1" parent="1">
          <mxGeometry x="1310" y="480" width="190" height="620" as="geometry" />
        </mxCell>
        <mxCell id="ldVx8aX9t8VwM5ESo-0d-15" value="" style="html=1;points=[[0,0,0,0,5],[0,1,0,0,-5],[1,0,0,0,5],[1,1,0,0,-5]];perimeter=orthogonalPerimeter;outlineConnect=0;targetShapes=umlLifeline;portConstraint=eastwest;newEdgeStyle={&quot;curved&quot;:0,&quot;rounded&quot;:0};" vertex="1" parent="ldVx8aX9t8VwM5ESo-0d-3">
          <mxGeometry x="90" y="430" width="10" height="140" as="geometry" />
        </mxCell>
        <mxCell id="ldVx8aX9t8VwM5ESo-0d-4" value=":DB_client" style="shape=umlLifeline;perimeter=lifelinePerimeter;whiteSpace=wrap;html=1;container=1;dropTarget=0;collapsible=0;recursiveResize=0;outlineConnect=0;portConstraint=eastwest;newEdgeStyle={&quot;curved&quot;:0,&quot;rounded&quot;:0};" vertex="1" parent="1">
          <mxGeometry x="1780" y="480" width="190" height="590" as="geometry" />
        </mxCell>
        <mxCell id="ldVx8aX9t8VwM5ESo-0d-9" value="" style="html=1;points=[[0,0,0,0,5],[0,1,0,0,-5],[1,0,0,0,5],[1,1,0,0,-5]];perimeter=orthogonalPerimeter;outlineConnect=0;targetShapes=umlLifeline;portConstraint=eastwest;newEdgeStyle={&quot;curved&quot;:0,&quot;rounded&quot;:0};" vertex="1" parent="ldVx8aX9t8VwM5ESo-0d-4">
          <mxGeometry x="90" y="450" width="10" height="100" as="geometry" />
        </mxCell>
        <mxCell id="ldVx8aX9t8VwM5ESo-0d-5" value="add_student_modal:&lt;br&gt;Add_student_modal" style="shape=umlLifeline;perimeter=lifelinePerimeter;whiteSpace=wrap;html=1;container=1;dropTarget=0;collapsible=0;recursiveResize=0;outlineConnect=0;portConstraint=eastwest;newEdgeStyle={&quot;curved&quot;:0,&quot;rounded&quot;:0};" vertex="1" parent="1">
          <mxGeometry x="230" y="480" width="190" height="520" as="geometry" />
        </mxCell>
        <mxCell id="ldVx8aX9t8VwM5ESo-0d-11" value="" style="html=1;points=[[0,0,0,0,5],[0,1,0,0,-5],[1,0,0,0,5],[1,1,0,0,-5]];perimeter=orthogonalPerimeter;outlineConnect=0;targetShapes=umlLifeline;portConstraint=eastwest;newEdgeStyle={&quot;curved&quot;:0,&quot;rounded&quot;:0};" vertex="1" parent="ldVx8aX9t8VwM5ESo-0d-5">
          <mxGeometry x="90" y="90" width="10" height="310" as="geometry" />
        </mxCell>
        <mxCell id="ldVx8aX9t8VwM5ESo-0d-6" value="add_student_controller:&lt;br&gt;Add_student_controller" style="shape=umlLifeline;perimeter=lifelinePerimeter;whiteSpace=wrap;html=1;container=1;dropTarget=0;collapsible=0;recursiveResize=0;outlineConnect=0;portConstraint=eastwest;newEdgeStyle={&quot;curved&quot;:0,&quot;rounded&quot;:0};" vertex="1" parent="1">
          <mxGeometry x="450" y="480" width="190" height="520" as="geometry" />
        </mxCell>
        <mxCell id="ldVx8aX9t8VwM5ESo-0d-12" value="" style="html=1;points=[[0,0,0,0,5],[0,1,0,0,-5],[1,0,0,0,5],[1,1,0,0,-5]];perimeter=orthogonalPerimeter;outlineConnect=0;targetShapes=umlLifeline;portConstraint=eastwest;newEdgeStyle={&quot;curved&quot;:0,&quot;rounded&quot;:0};" vertex="1" parent="ldVx8aX9t8VwM5ESo-0d-6">
          <mxGeometry x="90" y="100" width="10" height="290" as="geometry" />
        </mxCell>
        <mxCell id="ldVx8aX9t8VwM5ESo-0d-7" value=":Student" style="shape=umlLifeline;perimeter=lifelinePerimeter;whiteSpace=wrap;html=1;container=1;dropTarget=0;collapsible=0;recursiveResize=0;outlineConnect=0;portConstraint=eastwest;newEdgeStyle={&quot;curved&quot;:0,&quot;rounded&quot;:0};" vertex="1" parent="1">
          <mxGeometry x="670" y="480" width="190" height="520" as="geometry" />
        </mxCell>
        <mxCell id="ldVx8aX9t8VwM5ESo-0d-14" value="" style="html=1;points=[[0,0,0,0,5],[0,1,0,0,-5],[1,0,0,0,5],[1,1,0,0,-5]];perimeter=orthogonalPerimeter;outlineConnect=0;targetShapes=umlLifeline;portConstraint=eastwest;newEdgeStyle={&quot;curved&quot;:0,&quot;rounded&quot;:0};" vertex="1" parent="ldVx8aX9t8VwM5ESo-0d-7">
          <mxGeometry x="90" y="190" width="10" height="130" as="geometry" />
        </mxCell>
        <mxCell id="ldVx8aX9t8VwM5ESo-0d-8" value="student:Student" style="shape=umlLifeline;perimeter=lifelinePerimeter;whiteSpace=wrap;html=1;container=1;dropTarget=0;collapsible=0;recursiveResize=0;outlineConnect=0;portConstraint=eastwest;newEdgeStyle={&quot;curved&quot;:0,&quot;rounded&quot;:0};" vertex="1" parent="1">
          <mxGeometry x="1090" y="480" width="190" height="520" as="geometry" />
        </mxCell>
        <mxCell id="ldVx8aX9t8VwM5ESo-0d-16" value="" style="html=1;points=[[0,0,0,0,5],[0,1,0,0,-5],[1,0,0,0,5],[1,1,0,0,-5]];perimeter=orthogonalPerimeter;outlineConnect=0;targetShapes=umlLifeline;portConstraint=eastwest;newEdgeStyle={&quot;curved&quot;:0,&quot;rounded&quot;:0};" vertex="1" parent="ldVx8aX9t8VwM5ESo-0d-8">
          <mxGeometry x="90" y="390" width="10" height="50" as="geometry" />
        </mxCell>
        <mxCell id="ldVx8aX9t8VwM5ESo-0d-17" value="new()" style="html=1;verticalAlign=bottom;endArrow=block;curved=0;rounded=0;" edge="1" parent="1" target="ldVx8aX9t8VwM5ESo-0d-5">
          <mxGeometry width="80" relative="1" as="geometry">
            <mxPoint x="110" y="570" as="sourcePoint" />
            <mxPoint x="190" y="570" as="targetPoint" />
          </mxGeometry>
        </mxCell>
        <mxCell id="ldVx8aX9t8VwM5ESo-0d-18" value="new()" style="html=1;verticalAlign=bottom;endArrow=block;curved=0;rounded=0;" edge="1" parent="1">
          <mxGeometry width="80" relative="1" as="geometry">
            <mxPoint x="330" y="580" as="sourcePoint" />
            <mxPoint x="545" y="580" as="targetPoint" />
          </mxGeometry>
        </mxCell>
        <mxCell id="ldVx8aX9t8VwM5ESo-0d-19" value="data_list: Data_list" style="shape=umlLifeline;perimeter=lifelinePerimeter;whiteSpace=wrap;html=1;container=1;dropTarget=0;collapsible=0;recursiveResize=0;outlineConnect=0;portConstraint=eastwest;newEdgeStyle={&quot;curved&quot;:0,&quot;rounded&quot;:0};" vertex="1" parent="1">
          <mxGeometry x="1550" y="480" width="190" height="700" as="geometry" />
        </mxCell>
        <mxCell id="ldVx8aX9t8VwM5ESo-0d-21" value="return" style="html=1;verticalAlign=bottom;endArrow=open;dashed=1;endSize=8;curved=0;rounded=0;" edge="1" parent="1" target="ldVx8aX9t8VwM5ESo-0d-5">
          <mxGeometry relative="1" as="geometry">
            <mxPoint x="540" y="600" as="sourcePoint" />
            <mxPoint x="460" y="600" as="targetPoint" />
          </mxGeometry>
        </mxCell>
        <mxCell id="ldVx8aX9t8VwM5ESo-0d-22" value="return" style="html=1;verticalAlign=bottom;endArrow=open;dashed=1;endSize=8;curved=0;rounded=0;" edge="1" parent="1" target="ldVx8aX9t8VwM5ESo-0d-1">
          <mxGeometry relative="1" as="geometry">
            <mxPoint x="320" y="620" as="sourcePoint" />
            <mxPoint x="240" y="620" as="targetPoint" />
          </mxGeometry>
        </mxCell>
        <mxCell id="ldVx8aX9t8VwM5ESo-0d-23" value="valid_data?()" style="html=1;verticalAlign=bottom;endArrow=block;curved=0;rounded=0;" edge="1" parent="1">
          <mxGeometry width="80" relative="1" as="geometry">
            <mxPoint x="330" y="650" as="sourcePoint" />
            <mxPoint x="545" y="650" as="targetPoint" />
          </mxGeometry>
        </mxCell>
        <mxCell id="ldVx8aX9t8VwM5ESo-0d-24" value="valid_name?" style="html=1;verticalAlign=bottom;endArrow=block;curved=0;rounded=0;" edge="1" parent="1" target="ldVx8aX9t8VwM5ESo-0d-7">
          <mxGeometry width="80" relative="1" as="geometry">
            <mxPoint x="550" y="670" as="sourcePoint" />
            <mxPoint x="630" y="670" as="targetPoint" />
          </mxGeometry>
        </mxCell>
        <mxCell id="ldVx8aX9t8VwM5ESo-0d-25" value="return" style="html=1;verticalAlign=bottom;endArrow=open;dashed=1;endSize=8;curved=0;rounded=0;" edge="1" parent="1">
          <mxGeometry relative="1" as="geometry">
            <mxPoint x="760" y="686" as="sourcePoint" />
            <mxPoint x="545.0999999999999" y="686" as="targetPoint" />
          </mxGeometry>
        </mxCell>
        <mxCell id="ldVx8aX9t8VwM5ESo-0d-26" value="valid_name?" style="html=1;verticalAlign=bottom;endArrow=block;curved=0;rounded=0;" edge="1" parent="1">
          <mxGeometry width="80" relative="1" as="geometry">
            <mxPoint x="548.9" y="710" as="sourcePoint" />
            <mxPoint x="763.9" y="710" as="targetPoint" />
          </mxGeometry>
        </mxCell>
        <mxCell id="ldVx8aX9t8VwM5ESo-0d-27" value="return" style="html=1;verticalAlign=bottom;endArrow=open;dashed=1;endSize=8;curved=0;rounded=0;" edge="1" parent="1">
          <mxGeometry relative="1" as="geometry">
            <mxPoint x="758.9" y="726" as="sourcePoint" />
            <mxPoint x="543.9999999999999" y="726" as="targetPoint" />
          </mxGeometry>
        </mxCell>
        <mxCell id="ldVx8aX9t8VwM5ESo-0d-28" value="valid_name?" style="html=1;verticalAlign=bottom;endArrow=block;curved=0;rounded=0;" edge="1" parent="1">
          <mxGeometry width="80" relative="1" as="geometry">
            <mxPoint x="548.9" y="746" as="sourcePoint" />
            <mxPoint x="763.9" y="746" as="targetPoint" />
          </mxGeometry>
        </mxCell>
        <mxCell id="ldVx8aX9t8VwM5ESo-0d-29" value="return" style="html=1;verticalAlign=bottom;endArrow=open;dashed=1;endSize=8;curved=0;rounded=0;" edge="1" parent="1">
          <mxGeometry relative="1" as="geometry">
            <mxPoint x="758.9" y="762" as="sourcePoint" />
            <mxPoint x="543.9999999999999" y="762" as="targetPoint" />
          </mxGeometry>
        </mxCell>
        <mxCell id="ldVx8aX9t8VwM5ESo-0d-30" value="valid_birthdate?" style="html=1;verticalAlign=bottom;endArrow=block;curved=0;rounded=0;" edge="1" parent="1">
          <mxGeometry width="80" relative="1" as="geometry">
            <mxPoint x="547.9" y="785" as="sourcePoint" />
            <mxPoint x="762.9" y="785" as="targetPoint" />
          </mxGeometry>
        </mxCell>
        <mxCell id="ldVx8aX9t8VwM5ESo-0d-31" value="return" style="html=1;verticalAlign=bottom;endArrow=open;dashed=1;endSize=8;curved=0;rounded=0;" edge="1" parent="1">
          <mxGeometry relative="1" as="geometry">
            <mxPoint x="757.9" y="801" as="sourcePoint" />
            <mxPoint x="542.9999999999999" y="801" as="targetPoint" />
          </mxGeometry>
        </mxCell>
        <mxCell id="ldVx8aX9t8VwM5ESo-0d-32" value="add_student()" style="html=1;verticalAlign=bottom;endArrow=block;curved=0;rounded=0;" edge="1" parent="1" target="ldVx8aX9t8VwM5ESo-0d-6">
          <mxGeometry width="80" relative="1" as="geometry">
            <mxPoint x="330" y="840" as="sourcePoint" />
            <mxPoint x="410" y="840" as="targetPoint" />
          </mxGeometry>
        </mxCell>
        <mxCell id="ldVx8aX9t8VwM5ESo-0d-33" value="add_student()" style="html=1;verticalAlign=bottom;endArrow=block;curved=0;rounded=0;" edge="1" parent="1" target="ldVx8aX9t8VwM5ESo-0d-2">
          <mxGeometry width="80" relative="1" as="geometry">
            <mxPoint x="550" y="860" as="sourcePoint" />
            <mxPoint x="765" y="860" as="targetPoint" />
          </mxGeometry>
        </mxCell>
        <mxCell id="ldVx8aX9t8VwM5ESo-0d-34" value="new()" style="html=1;verticalAlign=bottom;endArrow=block;curved=0;rounded=0;" edge="1" parent="1">
          <mxGeometry width="80" relative="1" as="geometry">
            <mxPoint x="980" y="870" as="sourcePoint" />
            <mxPoint x="1180" y="870" as="targetPoint" />
          </mxGeometry>
        </mxCell>
        <mxCell id="ldVx8aX9t8VwM5ESo-0d-35" value="return" style="html=1;verticalAlign=bottom;endArrow=open;dashed=1;endSize=8;curved=0;rounded=0;" edge="1" parent="1" target="ldVx8aX9t8VwM5ESo-0d-2">
          <mxGeometry relative="1" as="geometry">
            <mxPoint x="1180" y="890" as="sourcePoint" />
            <mxPoint x="1100" y="890" as="targetPoint" />
          </mxGeometry>
        </mxCell>
        <mxCell id="ldVx8aX9t8VwM5ESo-0d-36" value="add_student()" style="html=1;verticalAlign=bottom;endArrow=block;curved=0;rounded=0;" edge="1" parent="1">
          <mxGeometry width="80" relative="1" as="geometry">
            <mxPoint x="980" y="920" as="sourcePoint" />
            <mxPoint x="1405" y="920" as="targetPoint" />
          </mxGeometry>
        </mxCell>
        <mxCell id="ldVx8aX9t8VwM5ESo-0d-37" value="query()" style="html=1;verticalAlign=bottom;endArrow=block;curved=0;rounded=0;" edge="1" parent="1" target="ldVx8aX9t8VwM5ESo-0d-9">
          <mxGeometry width="80" relative="1" as="geometry">
            <mxPoint x="1410" y="940" as="sourcePoint" />
            <mxPoint x="1835" y="940" as="targetPoint" />
          </mxGeometry>
        </mxCell>
        <mxCell id="ldVx8aX9t8VwM5ESo-0d-38" value="return" style="html=1;verticalAlign=bottom;endArrow=open;dashed=1;endSize=8;curved=0;rounded=0;" edge="1" parent="1" target="ldVx8aX9t8VwM5ESo-0d-2">
          <mxGeometry relative="1" as="geometry">
            <mxPoint x="1405" y="970" as="sourcePoint" />
            <mxPoint x="1200" y="970" as="targetPoint" />
          </mxGeometry>
        </mxCell>
        <mxCell id="ldVx8aX9t8VwM5ESo-0d-39" value="get_k_n_student_short_list()" style="html=1;verticalAlign=bottom;endArrow=block;curved=0;rounded=0;" edge="1" parent="1">
          <mxGeometry width="80" relative="1" as="geometry">
            <mxPoint x="980" y="1000" as="sourcePoint" />
            <mxPoint x="1405" y="1000" as="targetPoint" />
          </mxGeometry>
        </mxCell>
        <mxCell id="ldVx8aX9t8VwM5ESo-0d-40" value="query()" style="html=1;verticalAlign=bottom;endArrow=block;curved=0;rounded=0;" edge="1" parent="1">
          <mxGeometry width="80" relative="1" as="geometry">
            <mxPoint x="1410" y="1010" as="sourcePoint" />
            <mxPoint x="1870" y="1010" as="targetPoint" />
          </mxGeometry>
        </mxCell>
        <mxCell id="ldVx8aX9t8VwM5ESo-0d-41" value="return" style="html=1;verticalAlign=bottom;endArrow=open;dashed=1;endSize=8;curved=0;rounded=0;" edge="1" parent="1" target="ldVx8aX9t8VwM5ESo-0d-15">
          <mxGeometry relative="1" as="geometry">
            <mxPoint x="1870" y="1030" as="sourcePoint" />
            <mxPoint x="1790" y="1030" as="targetPoint" />
          </mxGeometry>
        </mxCell>
        <mxCell id="ldVx8aX9t8VwM5ESo-0d-20" value="" style="html=1;points=[[0,0,0,0,5],[0,1,0,0,-5],[1,0,0,0,5],[1,1,0,0,-5]];perimeter=orthogonalPerimeter;outlineConnect=0;targetShapes=umlLifeline;portConstraint=eastwest;newEdgeStyle={&quot;curved&quot;:0,&quot;rounded&quot;:0};" vertex="1" parent="1">
          <mxGeometry x="1640" y="1045" width="10" height="65" as="geometry" />
        </mxCell>
        <mxCell id="ldVx8aX9t8VwM5ESo-0d-42" value="data=()" style="html=1;verticalAlign=bottom;endArrow=block;curved=0;rounded=0;entryX=0;entryY=0;entryDx=0;entryDy=5;entryPerimeter=0;" edge="1" parent="1" target="ldVx8aX9t8VwM5ESo-0d-20">
          <mxGeometry width="80" relative="1" as="geometry">
            <mxPoint x="1410" y="1050" as="sourcePoint" />
            <mxPoint x="1835" y="1050" as="targetPoint" />
          </mxGeometry>
        </mxCell>
        <mxCell id="O_wsQ_O2rU9nEs2kpOB6-1" value="set_table_params()" style="html=1;verticalAlign=bottom;endArrow=block;curved=0;rounded=0;" edge="1" parent="1" target="ldVx8aX9t8VwM5ESo-0d-10">
          <mxGeometry width="80" relative="1" as="geometry">
            <mxPoint x="1640" y="1080" as="sourcePoint" />
            <mxPoint x="1525.5" y="1080" as="targetPoint" />
          </mxGeometry>
        </mxCell>
        <mxCell id="O_wsQ_O2rU9nEs2kpOB6-2" value="set_table_data()" style="html=1;verticalAlign=bottom;endArrow=block;curved=0;rounded=0;" edge="1" parent="1">
          <mxGeometry width="80" relative="1" as="geometry">
            <mxPoint x="1640" y="1110" as="sourcePoint" />
            <mxPoint x="110" y="1110" as="targetPoint" />
          </mxGeometry>
        </mxCell>
      </root>
    </mxGraphModel>
  </diagram>
</mxfile>
